<svg width="211" height="161" viewBox="0 0 211 161" fill="none" xmlns="http://www.w3.org/2000/svg">
<path d="M198.738 85.955C199.232 84.9251 199.343 84.3824 199.343 84.3824C199.343 84.3824 200.776 82.0746 200.827 77.9572C200.827 77.9572 197.43 52.8344 175.605 45.0887C175.605 45.0887 175.605 45.0887 175.573 44.969C168.97 41.865 161.827 40.5729 154.702 40.3022C148.086 40.0228 141.696 40.581 135.912 41.4896C132.106 42.1246 128.572 42.815 125.701 43.5845C119.447 45.132 112.855 44.4616 106.979 41.6759C97.9489 37.1704 89.6711 34.5152 82.3764 33.1355C73.1821 31.3671 65.4345 31.6477 59.4113 32.6204C49.2237 34.3242 43.8503 38.2006 43.8503 38.2006C39.6562 40.7351 36.5006 44.2737 34.2874 48.4575C28.515 58.9812 28.3324 73.1367 28.9101 82.4719C29.2846 88.6554 27.736 94.8412 24.2473 100.008C24.0721 100.311 23.7773 100.647 23.6021 100.95C11.7664 118.998 24.7296 142.968 46.3699 143.325C47.7823 143.332 49.1946 143.338 50.7266 143.312C71.0102 143.391 88.7146 141.982 103.968 139.562C175.529 128.082 195.26 93.5555 198.738 85.955Z" fill="#FCD39B"/>
</svg>
