<svg width="211" height="104" viewBox="0 0 211 104" fill="none" xmlns="http://www.w3.org/2000/svg">
<path d="M187.535 50.2118C187.991 49.2622 188.094 48.7619 188.094 48.7619C188.094 48.7619 189.418 46.634 189.467 42.8386C189.467 42.8386 186.341 19.6818 166.195 12.5506C166.195 12.5506 166.195 12.5506 166.166 12.4403C160.071 9.58171 153.477 8.39357 146.899 8.14689C140.792 7.89208 134.892 8.40924 129.551 9.24912C126.038 9.83593 122.775 10.4738 120.124 11.1843C114.349 12.6133 108.264 11.998 102.841 9.43253C94.5058 5.28303 86.8648 2.83884 80.1309 1.57002C71.6434 -0.0563439 64.4906 0.205428 58.9296 1.10451C49.5237 2.67921 44.5614 6.25466 44.5614 6.25466C40.6883 8.59263 37.7737 11.8558 35.7287 15.7133C30.3953 25.4164 30.2211 38.465 30.7506 47.0699C31.0938 52.7697 29.6617 58.4724 26.4387 63.2366C26.2769 63.5164 26.0045 63.8257 25.8427 64.1055C14.9086 80.7464 26.8666 102.837 46.8449 103.157C48.1488 103.163 49.4527 103.168 50.867 103.143C69.5928 103.208 85.9382 101.902 100.021 99.6649C166.091 89.0535 184.321 57.2193 187.535 50.2118Z" fill="#0C1C2A"/>
<path d="M11.872 48.2543L11.172 49.7103L10.36 47.9183C7.476 41.5623 7.448 41.5623 10.276 41.4503V41.0863H0V41.4503C2.24 41.5623 2.716 42.9063 4.424 46.6583L8.596 55.7863H8.96L12.516 48.3383C15.288 42.5703 15.148 41.5623 17.472 41.4503V41.0863H12.04V41.4503C15.036 41.5343 14.588 42.4863 11.872 48.2543ZM22.7927 39.4343C24.4727 39.4343 25.8727 38.1183 25.8727 36.4943C25.8727 34.8703 24.4727 33.5543 22.7927 33.5543C21.1407 33.5543 19.7127 34.8703 19.7127 36.4943C19.7127 38.1183 21.1407 39.4343 22.7927 39.4343ZM17.7247 55.0303H28.3087V54.6663C25.4527 54.5823 25.9007 54.4983 25.6767 48.3943V41.0023L17.5567 41.3383V41.7303C20.8047 41.7863 20.3567 41.8703 20.3567 48.3943C20.3567 54.4983 20.5807 54.5823 17.7247 54.6663V55.0303ZM38.6654 53.6583C35.7814 53.6583 34.1014 50.8863 34.1014 47.5823V47.5543H43.2294C43.4814 44.8663 42.1094 40.4423 36.7614 40.4423C31.5254 40.4423 28.9494 44.2223 28.9494 48.0303C28.9494 51.8103 31.3294 55.6463 36.5374 55.6463C40.4294 55.6463 42.9774 53.1543 43.5374 50.4383L43.1174 50.3263C42.5294 52.5663 40.8494 53.6583 38.6654 53.6583ZM36.6214 40.8903C38.1054 40.8903 38.4694 42.7383 38.2734 46.9663H34.1014C34.1854 42.3183 35.1654 40.8903 36.6214 40.8903ZM63.2017 48.2543L62.8377 49.0383L62.3337 47.7783C59.7577 41.3103 59.9257 41.5623 61.8017 41.4503V41.0863H52.9257V41.4503C54.2977 41.5343 54.9137 42.4023 55.9217 44.8663L53.9897 49.4583L53.2897 47.9183C50.4057 41.5623 50.9097 41.5623 52.0857 41.4503V41.0863H42.9297V41.4503C45.1697 41.5623 45.6457 42.9063 47.3537 46.6583L51.5257 55.7863H51.8897L56.2297 45.6783C56.3697 45.9863 56.4817 46.2943 56.6217 46.6583L60.1217 55.7863H60.4857L63.8457 48.3383C66.4777 42.4863 66.4777 41.5623 68.8017 41.4503V41.0863H63.3697V41.4503C66.3657 41.5343 65.8057 42.4583 63.2017 48.2543ZM74.27 62.5343V62.8703H88.158V62.5343C83.034 62.4223 83.398 61.8903 83.398 54.6663V53.5743C83.986 54.7503 85.302 55.5903 87.486 55.5903C91.994 55.5903 94.626 52.0623 94.626 47.8063C94.626 43.4943 92.162 40.4703 88.214 40.4703C85.582 40.4703 84.098 41.7303 83.286 43.4663V41.0303L75.39 41.3383V41.7303C78.526 41.8143 78.19 41.7863 78.19 47.9183V54.6663C78.19 61.8903 78.666 62.4223 74.27 62.5343ZM86.282 41.8143C88.466 41.8143 89.474 44.9783 89.474 48.2263C89.474 51.9783 88.438 54.7503 86.422 54.7503C84.182 54.7503 83.174 52.3703 83.174 48.3103C83.174 44.1383 84.322 41.8143 86.282 41.8143ZM104.106 40.4423C99.7097 40.4423 96.4338 43.7183 96.4338 47.9463C96.4338 52.7903 100.046 55.6463 104.106 55.6463C108.166 55.6463 111.806 52.7903 111.806 47.9463C111.806 43.7183 108.474 40.4423 104.106 40.4423ZM101.586 48.0303C101.586 43.6623 102.258 40.9183 104.106 40.9183C105.954 40.9183 106.626 43.6623 106.626 48.0303C106.626 52.3983 105.926 55.1703 104.106 55.1703C102.286 55.1703 101.586 52.3983 101.586 48.0303ZM112.824 55.0303H123.968V54.6663C120.944 54.5823 120.776 54.5263 120.776 50.2703V45.1463C121.336 42.9903 122.512 41.1143 124.528 41.1143C125.424 41.1143 125.788 41.4223 126.04 41.7863C125.788 41.7023 125.424 41.6743 125.144 41.6743C123.828 41.6743 122.708 42.6823 122.708 44.1663C122.708 45.6503 123.8 46.7983 125.396 46.7983C127.216 46.7983 128.196 45.2583 128.196 43.8303C128.196 41.8423 126.516 40.5263 124.724 40.5263C122.82 40.5263 121.532 41.7583 120.776 43.4663V41.0023L112.656 41.3383V41.7303C115.204 41.7863 115.484 41.8423 115.484 45.0063V50.5503C115.484 54.5263 115.288 54.5823 112.824 54.6663V55.0303ZM131.426 44.8383C131.426 47.3583 131.258 48.9543 131.258 50.6903C131.258 54.2463 133.302 55.6463 136.634 55.6463C140.33 55.6463 141.786 53.2103 142.094 50.3543L141.646 50.2703C141.478 51.6143 140.75 53.9103 138.958 53.9103C137.558 53.9103 136.746 52.7623 136.746 49.2343V42.0663H137.698C139.826 42.0663 140.582 43.2423 140.582 44.8103H140.946V38.5943H140.582C140.582 40.1623 139.826 41.3383 137.698 41.3383H136.746V34.8143H136.242C135.57 39.2943 132.098 41.5903 128.318 41.5903V42.0663C131.174 42.0663 131.426 42.0103 131.426 44.8383ZM143.016 55.0303H154.16V54.6663C151.136 54.5823 150.968 54.5263 150.968 50.2703V42.0663H155.168V41.3383H150.968V40.2183C150.968 36.4383 151.528 34.2543 154.188 34.2543C155.448 34.2543 156.036 34.7583 156.344 35.2063C156.064 35.0663 155.812 34.9543 155.308 34.9543C154.076 34.9543 153.012 35.7943 153.012 37.2223C153.012 38.2863 153.712 39.3503 155.252 39.3503C156.596 39.3503 157.66 38.4823 157.66 36.9983C157.66 35.1503 156.288 33.6103 153.348 33.6103C149.4 33.6103 145.536 35.5423 145.536 41.3383L142.652 41.4503V41.9823C145.228 41.9823 145.648 42.0383 145.648 44.5023V50.5503C145.648 54.5263 145.48 54.5823 143.016 54.6663V55.0303ZM163.442 40.4423C159.046 40.4423 155.77 43.7183 155.77 47.9463C155.77 52.7903 159.382 55.6463 163.442 55.6463C167.502 55.6463 171.142 52.7903 171.142 47.9463C171.142 43.7183 167.81 40.4423 163.442 40.4423ZM160.922 48.0303C160.922 43.6623 161.594 40.9183 163.442 40.9183C165.29 40.9183 165.962 43.6623 165.962 48.0303C165.962 52.3983 165.262 55.1703 163.442 55.1703C161.622 55.1703 160.922 52.3983 160.922 48.0303ZM171.911 55.0303H182.495V54.6663C179.723 54.5543 179.863 54.7503 179.863 48.1143V41.5343C179.863 40.2183 180.115 35.7663 180.395 34.3663L171.715 34.7303V35.1223C174.879 35.2063 174.571 34.8703 174.571 41.5343V48.1143C174.571 54.6943 174.683 54.5543 171.911 54.6663V55.0303ZM187.812 39.4343C189.492 39.4343 190.892 38.1183 190.892 36.4943C190.892 34.8703 189.492 33.5543 187.812 33.5543C186.16 33.5543 184.732 34.8703 184.732 36.4943C184.732 38.1183 186.16 39.4343 187.812 39.4343ZM182.744 55.0303H193.328V54.6663C190.472 54.5823 190.92 54.4983 190.696 48.3943V41.0023L182.576 41.3383V41.7303C185.824 41.7863 185.376 41.8703 185.376 48.3943C185.376 54.4983 185.6 54.5823 182.744 54.6663V55.0303ZM201.641 40.4423C197.245 40.4423 193.969 43.7183 193.969 47.9463C193.969 52.7903 197.581 55.6463 201.641 55.6463C205.701 55.6463 209.341 52.7903 209.341 47.9463C209.341 43.7183 206.009 40.4423 201.641 40.4423ZM199.121 48.0303C199.121 43.6623 199.793 40.9183 201.641 40.9183C203.489 40.9183 204.161 43.6623 204.161 48.0303C204.161 52.3983 203.461 55.1703 201.641 55.1703C199.821 55.1703 199.121 52.3983 199.121 48.0303Z" fill="#F2A33A"/>
</svg>
