<svg width="212" height="94" viewBox="0 0 212 94" fill="none" xmlns="http://www.w3.org/2000/svg">
<path d="M93.4768 0.149026C112.388 0.598946 141.57 2.31531 160.514 8.23093C165.942 9.93062 170.54 11.9636 173.784 14.4298C177.909 17.5293 180.012 21.7619 180.713 26.561C180.99 28.3774 181.055 30.2604 180.957 32.21C180.093 49.5069 166.203 70.9198 163.041 75.569C162.633 76.1689 162.405 76.5022 162.405 76.5022C157.367 84.3174 148.287 88.9166 137.543 91.4162C121.729 95.0989 102.313 94.2657 86.7112 92.4827C64.6536 89.9498 44.7806 76.4522 35.3903 55.8891C33.5481 51.8732 32.358 48.1239 31.6732 44.6411C25.25 11.547 66.7241 1.69875 73.8973 0.249008C74.5657 0.115698 75.2341 0.0490433 75.9188 0.0323795C78.2175 -0.000947878 84.3636 -0.050939 92.5965 0.132362C92.8899 0.132362 93.1834 0.149026 93.4768 0.149026Z" fill="#F2A33A"/>
<path d="M12.0093 48.5291L11.3093 49.9851L10.4973 48.1931C7.61327 41.8371 7.58527 41.8371 10.4133 41.7251V41.3611H0.137268V41.7251C2.37727 41.8371 2.85327 43.1811 4.56127 46.9331L8.73327 56.0611H9.09727L12.6533 48.6131C15.4253 42.8451 15.2853 41.8371 17.6093 41.7251V41.3611H12.1773V41.7251C15.1733 41.8091 14.7253 42.7611 12.0093 48.5291ZM22.9299 39.7091C24.6099 39.7091 26.0099 38.3931 26.0099 36.7691C26.0099 35.1451 24.6099 33.8291 22.9299 33.8291C21.2779 33.8291 19.8499 35.1451 19.8499 36.7691C19.8499 38.3931 21.2779 39.7091 22.9299 39.7091ZM17.8619 55.3051H28.4459V54.9411C25.5899 54.8571 26.0379 54.7731 25.8139 48.6691V41.2771L17.6939 41.6131V42.0051C20.9419 42.0611 20.4939 42.1451 20.4939 48.6691C20.4939 54.7731 20.7179 54.8571 17.8619 54.9411V55.3051ZM38.8026 53.9331C35.9186 53.9331 34.2386 51.1611 34.2386 47.8571V47.8291H43.3666C43.6186 45.1411 42.2466 40.7171 36.8986 40.7171C31.6626 40.7171 29.0866 44.4971 29.0866 48.3051C29.0866 52.0851 31.4666 55.9211 36.6746 55.9211C40.5666 55.9211 43.1146 53.4291 43.6746 50.7131L43.2546 50.6011C42.6666 52.8411 40.9866 53.9331 38.8026 53.9331ZM36.7586 41.1651C38.2426 41.1651 38.6066 43.0131 38.4106 47.2411H34.2386C34.3226 42.5931 35.3026 41.1651 36.7586 41.1651ZM63.339 48.5291L62.975 49.3131L62.471 48.0531C59.895 41.5851 60.063 41.8371 61.939 41.7251V41.3611H53.063V41.7251C54.435 41.8091 55.051 42.6771 56.059 45.1411L54.127 49.7331L53.427 48.1931C50.543 41.8371 51.047 41.8371 52.223 41.7251V41.3611H43.067V41.7251C45.307 41.8371 45.783 43.1811 47.491 46.9331L51.663 56.0611H52.027L56.367 45.9531C56.507 46.2611 56.619 46.5691 56.759 46.9331L60.259 56.0611H60.623L63.983 48.6131C66.615 42.7611 66.615 41.8371 68.939 41.7251V41.3611H63.507V41.7251C66.503 41.8091 65.943 42.7331 63.339 48.5291ZM74.4073 62.8091V63.1451H88.2953V62.8091C83.1713 62.6971 83.5353 62.1651 83.5353 54.9411V53.8491C84.1233 55.0251 85.4393 55.8651 87.6233 55.8651C92.1313 55.8651 94.7633 52.3371 94.7633 48.0811C94.7633 43.7691 92.2993 40.7451 88.3513 40.7451C85.7193 40.7451 84.2353 42.0051 83.4233 43.7411V41.3051L75.5273 41.6131V42.0051C78.6633 42.0891 78.3273 42.0611 78.3273 48.1931V54.9411C78.3273 62.1651 78.8033 62.6971 74.4073 62.8091ZM86.4193 42.0891C88.6033 42.0891 89.6113 45.2531 89.6113 48.5011C89.6113 52.2531 88.5753 55.0251 86.5593 55.0251C84.3193 55.0251 83.3113 52.6451 83.3113 48.5851C83.3113 44.4131 84.4593 42.0891 86.4193 42.0891ZM104.243 40.7171C99.847 40.7171 96.571 43.9931 96.571 48.2211C96.571 53.0651 100.183 55.9211 104.243 55.9211C108.303 55.9211 111.943 53.0651 111.943 48.2211C111.943 43.9931 108.611 40.7171 104.243 40.7171ZM101.723 48.3051C101.723 43.9371 102.395 41.1931 104.243 41.1931C106.091 41.1931 106.763 43.9371 106.763 48.3051C106.763 52.6731 106.063 55.4451 104.243 55.4451C102.423 55.4451 101.723 52.6731 101.723 48.3051ZM112.962 55.3051H124.106V54.9411C121.082 54.8571 120.914 54.8011 120.914 50.5451V45.4211C121.474 43.2651 122.65 41.3891 124.666 41.3891C125.562 41.3891 125.926 41.6971 126.178 42.0611C125.926 41.9771 125.562 41.9491 125.282 41.9491C123.966 41.9491 122.846 42.9571 122.846 44.4411C122.846 45.9251 123.938 47.0731 125.534 47.0731C127.354 47.0731 128.334 45.5331 128.334 44.1051C128.334 42.1171 126.654 40.8011 124.862 40.8011C122.958 40.8011 121.67 42.0331 120.914 43.7411V41.2771L112.794 41.6131V42.0051C115.342 42.0611 115.622 42.1171 115.622 45.2811V50.8251C115.622 54.8011 115.426 54.8571 112.962 54.9411V55.3051ZM131.563 45.1131C131.563 47.6331 131.395 49.2291 131.395 50.9651C131.395 54.5211 133.439 55.9211 136.771 55.9211C140.467 55.9211 141.923 53.4851 142.231 50.6291L141.783 50.5451C141.615 51.8891 140.887 54.1851 139.095 54.1851C137.695 54.1851 136.883 53.0371 136.883 49.5091V42.3411H137.835C139.963 42.3411 140.719 43.5171 140.719 45.0851H141.083V38.8691H140.719C140.719 40.4371 139.963 41.6131 137.835 41.6131H136.883V35.0891H136.379C135.707 39.5691 132.235 41.8651 128.455 41.8651V42.3411C131.311 42.3411 131.563 42.2851 131.563 45.1131ZM143.154 55.3051H154.298V54.9411C151.274 54.8571 151.106 54.8011 151.106 50.5451V42.3411H155.306V41.6131H151.106V40.4931C151.106 36.7131 151.666 34.5291 154.326 34.5291C155.586 34.5291 156.174 35.0331 156.482 35.4811C156.202 35.3411 155.95 35.2291 155.446 35.2291C154.214 35.2291 153.15 36.0691 153.15 37.4971C153.15 38.5611 153.85 39.6251 155.39 39.6251C156.734 39.6251 157.798 38.7571 157.798 37.2731C157.798 35.4251 156.426 33.8851 153.486 33.8851C149.538 33.8851 145.674 35.8171 145.674 41.6131L142.79 41.7251V42.2571C145.366 42.2571 145.786 42.3131 145.786 44.7771V50.8251C145.786 54.8011 145.618 54.8571 143.154 54.9411V55.3051ZM163.579 40.7171C159.183 40.7171 155.907 43.9931 155.907 48.2211C155.907 53.0651 159.519 55.9211 163.579 55.9211C167.639 55.9211 171.279 53.0651 171.279 48.2211C171.279 43.9931 167.947 40.7171 163.579 40.7171ZM161.059 48.3051C161.059 43.9371 161.731 41.1931 163.579 41.1931C165.427 41.1931 166.099 43.9371 166.099 48.3051C166.099 52.6731 165.399 55.4451 163.579 55.4451C161.759 55.4451 161.059 52.6731 161.059 48.3051ZM172.049 55.3051H182.633V54.9411C179.861 54.8291 180.001 55.0251 180.001 48.3891V41.8091C180.001 40.4931 180.253 36.0411 180.533 34.6411L171.853 35.0051V35.3971C175.017 35.4811 174.709 35.1451 174.709 41.8091V48.3891C174.709 54.9691 174.821 54.8291 172.049 54.9411V55.3051ZM187.949 39.7091C189.629 39.7091 191.029 38.3931 191.029 36.7691C191.029 35.1451 189.629 33.8291 187.949 33.8291C186.297 33.8291 184.869 35.1451 184.869 36.7691C184.869 38.3931 186.297 39.7091 187.949 39.7091ZM182.881 55.3051H193.465V54.9411C190.609 54.8571 191.057 54.7731 190.833 48.6691V41.2771L182.713 41.6131V42.0051C185.961 42.0611 185.513 42.1451 185.513 48.6691C185.513 54.7731 185.737 54.8571 182.881 54.9411V55.3051ZM201.778 40.7171C197.382 40.7171 194.106 43.9931 194.106 48.2211C194.106 53.0651 197.718 55.9211 201.778 55.9211C205.838 55.9211 209.478 53.0651 209.478 48.2211C209.478 43.9931 206.146 40.7171 201.778 40.7171ZM199.258 48.3051C199.258 43.9371 199.93 41.1931 201.778 41.1931C203.626 41.1931 204.298 43.9371 204.298 48.3051C204.298 52.6731 203.598 55.4451 201.778 55.4451C199.958 55.4451 199.258 52.6731 199.258 48.3051Z" fill="#0C1C2A"/>
</svg>
